<?xml version="1.0" encoding="utf-8"?>
<!-- Generator: Adobe Illustrator 19.1.0, SVG Export Plug-In . SVG Version: 6.00 Build 0)  -->
<svg version="1.1" id="Ebene_1" xmlns="http://www.w3.org/2000/svg" xmlns:xlink="http://www.w3.org/1999/xlink" x="0px" y="0px"
	 viewBox="0 0 140.7 194.6" style="enable-background:new 0 0 140.7 194.6;" xml:space="preserve">
<style type="text/css">
	.st0{fill:none;}
	.st1{fill:#BBA992;}
</style>
<g>
	<path class="st0" d="M24.4,53.4v20.8c11.9-12.1,28.5-19.6,46.8-19.6c18.7,0,35.6,7.9,47.6,20.5V54C105.4,44.4,89,38.7,71.2,38.7
		C53.8,38.7,37.7,44.1,24.4,53.4z"/>
	<path class="st0" d="M71.2,66c-18.3,0-34.5,9.1-44.4,23c2.1,5.7,5.3,11,9.4,15.4c6.1-13.2,19.5-22.5,35-22.5
		c15.7,0,29.3,9.5,35.2,23.1c4.2-4.4,7.5-9.6,9.7-15.3C106.3,75.4,89.8,66,71.2,66z"/>
	<path class="st0" d="M24.4,21.9v18c13.8-8,29.7-12.6,46.8-12.6c17.4,0,33.7,4.8,47.6,13.1V22.3c-14.4-7-30.5-11-47.6-11
		C54.5,11.4,38.6,15.2,24.4,21.9z"/>
	<path class="st0" d="M71.2,93.3c-12.1,0-22.3,8-25.8,18.9c2.6,1.7,5.4,3.2,8.3,4.4c1.7,0.7,4.1,1.7,6.5,2.7c0.6-5.6,5.3-10,11.1-10
		c5.8,0,10.6,4.5,11.1,10.2c2.8-1.1,5.4-2.2,7.3-2.9c2.6-1.1,5.2-2.4,7.6-3.9C93.8,101.5,83.5,93.3,71.2,93.3z"/>
	<path class="st0" d="M71.2,120.2c-0.1,0-0.2,0.1-0.2,0.2c0,0.1,0.1,0.2,0.2,0.2c0.1,0,0.2-0.1,0.2-0.2
		C71.4,120.3,71.3,120.2,71.2,120.2z"/>
	<path class="st0" d="M71.2,0c16.9,0,33,3.5,47.6,9.8V-5.3H24.4V9.5C38.8,3.4,54.6,0,71.2,0z"/>
	<path class="st1" d="M71.2,81.9c-15.5,0-28.9,9.2-35,22.5c2.7,3,5.8,5.6,9.1,7.8c3.5-10.9,13.7-18.9,25.8-18.9
		c12.2,0,22.6,8.2,25.9,19.3c3.4-2.2,6.5-4.7,9.3-7.6C100.5,91.4,86.9,81.9,71.2,81.9z"/>
	<path class="st1" d="M71.2,109.3c-5.8,0-10.5,4.4-11.1,10c5.3,2.3,10.8,4.8,10.8,4.8s5.9-2.4,11.4-4.6
		C81.9,113.8,77.1,109.3,71.2,109.3z"/>
	<path class="st1" d="M71.2,54.6c-18.3,0-34.8,7.5-46.8,19.6v5.4c0.5,3.3,1.3,6.4,2.4,9.4c9.9-13.9,26.1-23,44.4-23
		c18.6,0,35.1,9.4,44.9,23.8c1.3-3.2,2.2-6.6,2.7-10.2v-4.5C106.8,62.5,89.9,54.6,71.2,54.6z"/>
	<path class="st1" d="M24.4,39.9v13.5c13.3-9.3,29.4-14.8,46.8-14.8c17.8,0,34.2,5.7,47.6,15.4V40.4c-13.9-8.3-30.2-13.1-47.6-13.1
		C54.2,27.3,38.2,31.9,24.4,39.9z"/>
	<path class="st1" d="M24.4,9.5v12.5c14.2-6.8,30-10.6,46.8-10.6c17.1,0,33.2,3.9,47.6,11V9.8C104.2,3.5,88.1,0,71.2,0
		C54.6,0,38.8,3.4,24.4,9.5z"/>
</g>
<g>
	<path d="M2.7,176.5c0.6,1.2,1.6,2.2,2.8,2.9c1.2,0.7,2.6,1,3.9,1c0.6,0,1.3-0.1,1.9-0.3c0.6-0.2,1.2-0.5,1.7-0.9
		c0.5-0.4,0.9-0.8,1.2-1.3c0.3-0.5,0.5-1.1,0.5-1.8c0-1.1-0.3-1.9-1-2.4c-0.7-0.5-1.5-1-2.5-1.3c-1-0.3-2.1-0.6-3.3-0.8
		c-1.2-0.2-2.3-0.6-3.3-1c-1-0.5-1.9-1.1-2.5-1.9c-0.7-0.8-1-2-1-3.4c0-1.1,0.2-2.1,0.7-3c0.5-0.8,1.1-1.5,1.8-2.1
		c0.8-0.6,1.6-1,2.5-1.2c0.9-0.3,1.9-0.4,2.9-0.4c1.9,0,3.6,0.4,5,1.1c1.4,0.7,2.5,1.8,3.3,3.3l-2.7,1.6c-0.6-1.1-1.3-1.9-2.1-2.4
		c-0.9-0.6-2-0.8-3.4-0.8c-0.5,0-1.1,0.1-1.7,0.3c-0.6,0.2-1.1,0.4-1.6,0.7c-0.5,0.3-0.9,0.7-1.2,1.2c-0.3,0.5-0.5,1-0.5,1.6
		c0,1,0.3,1.8,1,2.3c0.7,0.5,1.5,0.9,2.5,1.2c1,0.3,2.1,0.5,3.3,0.7c1.2,0.2,2.3,0.5,3.3,1c1,0.5,1.9,1.1,2.5,2c0.7,0.9,1,2.1,1,3.7
		c0,1.2-0.2,2.3-0.7,3.2c-0.5,0.9-1.1,1.6-1.9,2.2c-0.8,0.6-1.7,1.1-2.7,1.4c-1,0.3-2.1,0.5-3.2,0.5c-2,0-3.9-0.4-5.5-1.2
		c-1.7-0.8-3-2-3.9-3.6L2.7,176.5z"/>
	<path d="M30.7,189.7c-0.6,1.5-1.4,2.7-2.4,3.6c-1,0.9-2.4,1.3-4,1.3c-0.5,0-1,0-1.5-0.1c-0.5-0.1-1-0.2-1.5-0.3l0.3-2.8
		c0.4,0.1,0.9,0.3,1.3,0.4c0.5,0.1,0.9,0.2,1.4,0.2c0.5,0,1-0.1,1.4-0.4c0.4-0.2,0.8-0.5,1.1-0.9c0.3-0.4,0.6-0.8,0.8-1.2
		c0.2-0.5,0.4-0.9,0.6-1.4l2.1-5.4l-9.5-23.4h3.4l7.7,19.6l7.5-19.6h3.2L30.7,189.7z"/>
	<path d="M48.5,176.5c0.6,1.2,1.6,2.2,2.8,2.9c1.2,0.7,2.6,1,3.9,1c0.6,0,1.3-0.1,1.9-0.3c0.6-0.2,1.2-0.5,1.7-0.9
		c0.5-0.4,0.9-0.8,1.2-1.3c0.3-0.5,0.5-1.1,0.5-1.8c0-1.1-0.3-1.9-1-2.4c-0.7-0.5-1.5-1-2.5-1.3c-1-0.3-2.1-0.6-3.3-0.8
		c-1.2-0.2-2.3-0.6-3.3-1c-1-0.5-1.9-1.1-2.5-1.9c-0.7-0.8-1-2-1-3.4c0-1.1,0.2-2.1,0.7-3c0.5-0.8,1.1-1.5,1.8-2.1
		c0.8-0.6,1.6-1,2.5-1.2c0.9-0.3,1.9-0.4,2.9-0.4c1.9,0,3.6,0.4,5,1.1c1.4,0.7,2.5,1.8,3.3,3.3l-2.7,1.6c-0.6-1.1-1.3-1.9-2.1-2.4
		c-0.9-0.6-2-0.8-3.4-0.8c-0.5,0-1.1,0.1-1.7,0.3c-0.6,0.2-1.1,0.4-1.6,0.7s-0.9,0.7-1.2,1.2c-0.3,0.5-0.5,1-0.5,1.6
		c0,1,0.3,1.8,1,2.3c0.7,0.5,1.5,0.9,2.5,1.2c1,0.3,2.1,0.5,3.3,0.7c1.2,0.2,2.3,0.5,3.3,1c1,0.5,1.9,1.1,2.5,2c0.7,0.9,1,2.1,1,3.7
		c0,1.2-0.2,2.3-0.7,3.2c-0.5,0.9-1.1,1.6-1.9,2.2s-1.7,1.1-2.7,1.4c-1,0.3-2.1,0.5-3.2,0.5c-2,0-3.9-0.4-5.5-1.2
		c-1.7-0.8-3-2-3.9-3.6L48.5,176.5z"/>
	<path d="M82.3,161.9h-6.7v15.2c0,1,0.3,1.9,0.9,2.4c0.6,0.6,1.4,0.9,2.4,0.9c0.6,0,1.2-0.1,1.7-0.2c0.6-0.2,1.2-0.3,1.7-0.6
		l0.3,2.7c-0.6,0.2-1.2,0.4-2,0.6c-0.7,0.2-1.4,0.3-2,0.3c-1.1,0-2-0.2-2.8-0.5c-0.8-0.3-1.4-0.7-1.9-1.3c-0.5-0.5-0.8-1.2-1-1.9
		c-0.2-0.7-0.3-1.5-0.3-2.3v-15.2h-5v-2.7h5v-6.7h3v6.7h6.7V161.9z"/>
	<path d="M87.3,170.8c0-1.8,0.3-3.4,0.9-4.9c0.6-1.5,1.4-2.8,2.5-3.9c1.1-1.1,2.4-1.9,3.9-2.5c1.5-0.6,3.2-0.9,4.9-0.9
		s3.4,0.3,4.9,0.9c1.5,0.6,2.8,1.5,3.9,2.5c1.1,1.1,1.9,2.4,2.5,3.9c0.6,1.5,0.9,3.1,0.9,4.9c0,1.8-0.3,3.4-0.9,4.9
		c-0.6,1.5-1.5,2.8-2.5,3.9c-1.1,1.1-2.4,1.9-3.9,2.5c-1.5,0.6-3.1,0.9-4.9,0.9s-3.4-0.3-4.9-0.9c-1.5-0.6-2.8-1.5-3.9-2.5
		c-1.1-1.1-1.9-2.4-2.5-3.9C87.7,174.2,87.3,172.6,87.3,170.8z M90.4,170.8c0,1.3,0.2,2.5,0.6,3.7c0.4,1.2,1,2.2,1.8,3
		c0.8,0.9,1.8,1.5,2.9,2c1.1,0.5,2.4,0.8,3.8,0.8s2.7-0.3,3.8-0.8c1.1-0.5,2.1-1.2,2.9-2c0.8-0.9,1.4-1.9,1.8-3
		c0.4-1.2,0.6-2.4,0.6-3.7c0-1.3-0.2-2.5-0.6-3.7c-0.4-1.2-1-2.2-1.8-3c-0.8-0.9-1.8-1.5-2.9-2c-1.1-0.5-2.4-0.8-3.8-0.8
		s-2.7,0.3-3.8,0.8c-1.1,0.5-2.1,1.2-2.9,2c-0.8,0.9-1.4,1.9-1.8,3C90.6,168.3,90.4,169.5,90.4,170.8z"/>
	<path d="M118.6,165.7c0-0.4,0-1-0.1-1.6c0-0.6-0.1-1.3-0.1-1.9c0-0.6,0-1.2-0.1-1.8c0-0.6,0-1,0-1.3h3c0,0.9,0.1,1.7,0.1,2.5
		c0,0.8,0.1,1.3,0.1,1.6c0.8-1.4,1.8-2.5,3-3.4c1.2-0.9,2.7-1.3,4.4-1.3c0.3,0,0.6,0,0.9,0.1c0.3,0.1,0.6,0.1,0.9,0.2l-0.4,3
		c-0.4-0.1-0.8-0.2-1.2-0.2c-1.3,0-2.4,0.2-3.4,0.6c-1,0.4-1.7,1-2.4,1.7c-0.6,0.7-1.1,1.6-1.4,2.6c-0.3,1-0.5,2.1-0.5,3.2v12.7h-3
		V165.7z"/>
	<path d="M136.1,149.9c0-0.6,0.2-1.2,0.7-1.6s1-0.7,1.6-0.7c0.6,0,1.2,0.2,1.6,0.7s0.7,1,0.7,1.6c0,0.6-0.2,1.2-0.7,1.6
		c-0.4,0.4-1,0.7-1.6,0.7c-0.6,0-1.2-0.2-1.6-0.7C136.4,151.1,136.1,150.6,136.1,149.9z M136.9,159.2h3v23.3h-3V159.2z"/>
</g>
<g>
</g>
<g>
</g>
<g>
</g>
<g>
</g>
<g>
</g>
<g>
</g>
</svg>
