<svg xmlns="http://www.w3.org/2000/svg" width="49.63mm" height="70.51mm" viewBox="0 0 140.69 199.86"><defs><style>.a{fill:none;}.b{fill:#bba992;}.b,.c{opacity:0.5;}.d{fill:#ddd;}</style></defs><title>field_app_bg</title><path class="a" d="M24.44,53.44V74.21a65.62,65.62,0,0,1,94.38.88V54A81.43,81.43,0,0,0,24.44,53.44Z" transform="translate(0 5.27)"/><path class="a" d="M71.21,66A54.37,54.37,0,0,0,26.83,89a47,47,0,0,0,9.41,15.43,38.44,38.44,0,0,1,70.2.59,47.11,47.11,0,0,0,9.69-15.26A54.38,54.38,0,0,0,71.21,66Z" transform="translate(0 5.27)"/><path class="a" d="M24.44,21.93v18a92.89,92.89,0,0,1,94.38.5V22.33A108.91,108.91,0,0,0,24.44,21.93Z" transform="translate(0 5.27)"/><path class="a" d="M71.21,93.31a27.14,27.14,0,0,0-25.83,18.9,48,48,0,0,0,8.28,4.35c1.74,0.7,4.07,1.7,6.46,2.74a11.14,11.14,0,0,1,22.2.19l7.28-2.94a48,48,0,0,0,7.56-3.91A27.13,27.13,0,0,0,71.21,93.31Z" transform="translate(0 5.27)"/><path class="a" d="M71.21,120.18a0.21,0.21,0,0,0-.22.22,0.22,0.22,0,0,0,.22.22,0.23,0.23,0,0,0,.22-0.22A0.22,0.22,0,0,0,71.21,120.18Z" transform="translate(0 5.27)"/><path class="a" d="M71.21,0a119.72,119.72,0,0,1,47.61,9.82V-5.27H24.44V9.46A119.75,119.75,0,0,1,71.21,0Z" transform="translate(0 5.27)"/><path class="b" d="M71.21,81.94a38.51,38.51,0,0,0-35,22.48,48.22,48.22,0,0,0,9.15,7.79,27.09,27.09,0,0,1,51.77.44,48.21,48.21,0,0,0,9.28-7.63A38.5,38.5,0,0,0,71.21,81.94Z" transform="translate(0 5.27)"/><path class="b" d="M71.21,109.26a11.16,11.16,0,0,0-11.09,10c5.25,2.29,10.76,4.78,10.76,4.78l11.43-4.59A11.16,11.16,0,0,0,71.21,109.26Z" transform="translate(0 5.27)"/><path class="b" d="M71.21,54.63A65.57,65.57,0,0,0,24.44,74.21v5.37A45.81,45.81,0,0,0,26.83,89a54.34,54.34,0,0,1,89.3.76,45.8,45.8,0,0,0,2.69-10.17V75.1A65.56,65.56,0,0,0,71.21,54.63Z" transform="translate(0 5.27)"/><path class="b" d="M24.44,39.94V53.44a81.43,81.43,0,0,1,94.38.6V40.43A92.89,92.89,0,0,0,24.44,39.94Z" transform="translate(0 5.27)"/><path class="b" d="M24.44,9.46V21.93a108.91,108.91,0,0,1,94.38.4V9.82A120.34,120.34,0,0,0,24.44,9.46Z" transform="translate(0 5.27)"/><g class="c"><path class="d" d="M2.67,176.52a6.51,6.51,0,0,0,2.83,2.85,8.32,8.32,0,0,0,3.94,1,6.37,6.37,0,0,0,1.92-.3,5.86,5.86,0,0,0,1.72-.86,4.67,4.67,0,0,0,1.24-1.34,3.36,3.36,0,0,0,.48-1.79,2.88,2.88,0,0,0-1-2.42,7.69,7.69,0,0,0-2.55-1.26,30.7,30.7,0,0,0-3.33-.78,14.23,14.23,0,0,1-3.33-1A7.17,7.17,0,0,1,2,168.7a5.13,5.13,0,0,1-1-3.43,6,6,0,0,1,.71-3,6.52,6.52,0,0,1,1.84-2.09A8,8,0,0,1,6.05,159a10.44,10.44,0,0,1,2.88-.4,10.88,10.88,0,0,1,5,1.06,7.35,7.35,0,0,1,3.25,3.33l-2.72,1.62a6.41,6.41,0,0,0-2.14-2.45,6.08,6.08,0,0,0-3.36-.83,6.16,6.16,0,0,0-1.69.25,6,6,0,0,0-1.59.71,4.1,4.1,0,0,0-1.19,1.16A2.8,2.8,0,0,0,4,165a2.68,2.68,0,0,0,1,2.32,7.91,7.91,0,0,0,2.55,1.19,30.71,30.71,0,0,0,3.33.73,13.51,13.51,0,0,1,3.33,1,6.82,6.82,0,0,1,2.55,2,5.72,5.72,0,0,1,1,3.66,6.85,6.85,0,0,1-.68,3.15,6.51,6.51,0,0,1-1.87,2.25,8.33,8.33,0,0,1-2.7,1.36,11,11,0,0,1-3.18.45,13,13,0,0,1-5.53-1.16A8.39,8.39,0,0,1,0,178.34Z" transform="translate(0 5.27)"/><path class="d" d="M30.68,189.69a8.69,8.69,0,0,1-2.37,3.58,6,6,0,0,1-4,1.31,9.32,9.32,0,0,1-1.51-.13,13.67,13.67,0,0,1-1.46-.33l0.3-2.83q0.65,0.2,1.34.38a5.53,5.53,0,0,0,1.39.18,2.91,2.91,0,0,0,1.44-.35,3.8,3.8,0,0,0,1.08-.91,6.25,6.25,0,0,0,.78-1.24,14.8,14.8,0,0,0,.58-1.39l2.12-5.4-9.49-23.41h3.38l7.72,19.63,7.52-19.63h3.23Z" transform="translate(0 5.27)"/><path class="d" d="M48.49,176.52a6.51,6.51,0,0,0,2.83,2.85,8.32,8.32,0,0,0,3.94,1,6.37,6.37,0,0,0,1.92-.3,5.84,5.84,0,0,0,1.71-.86,4.67,4.67,0,0,0,1.24-1.34,3.35,3.35,0,0,0,.48-1.79,2.88,2.88,0,0,0-1-2.42A7.68,7.68,0,0,0,57,172.38a30.68,30.68,0,0,0-3.33-.78,14.21,14.21,0,0,1-3.33-1,7.16,7.16,0,0,1-2.55-1.89,5.13,5.13,0,0,1-1-3.43,6,6,0,0,1,.71-3,6.51,6.51,0,0,1,1.84-2.09A8,8,0,0,1,51.87,159a10.44,10.44,0,0,1,2.88-.4,10.88,10.88,0,0,1,5,1.06A7.35,7.35,0,0,1,63,162.95l-2.72,1.62a6.41,6.41,0,0,0-2.14-2.45,6.08,6.08,0,0,0-3.36-.83,6.15,6.15,0,0,0-1.69.25,6,6,0,0,0-1.59.71,4.1,4.1,0,0,0-1.19,1.16,2.81,2.81,0,0,0-.48,1.62,2.69,2.69,0,0,0,1,2.32,7.92,7.92,0,0,0,2.55,1.19,30.68,30.68,0,0,0,3.33.73,13.5,13.5,0,0,1,3.33,1,6.81,6.81,0,0,1,2.55,2,5.71,5.71,0,0,1,1,3.66A6.85,6.85,0,0,1,63,179a6.51,6.51,0,0,1-1.87,2.25,8.34,8.34,0,0,1-2.7,1.36,11,11,0,0,1-3.18.45,13,13,0,0,1-5.53-1.16,8.38,8.38,0,0,1-3.86-3.58Z" transform="translate(0 5.27)"/><path class="d" d="M82.3,161.89H75.64v15.19a3.27,3.27,0,0,0,.86,2.42,3.21,3.21,0,0,0,2.37.86,7,7,0,0,0,1.74-.23,11.12,11.12,0,0,0,1.69-.58l0.25,2.72a18,18,0,0,1-2,.56,9,9,0,0,1-2,.25,7.25,7.25,0,0,1-2.78-.48A4.91,4.91,0,0,1,74,181.31a5,5,0,0,1-1-1.89,8.07,8.07,0,0,1-.33-2.35V161.89h-5v-2.72h5v-6.71h3v6.71H82.3v2.72Z" transform="translate(0 5.27)"/><path class="d" d="M87.35,170.82a13,13,0,0,1,.91-4.92A11.75,11.75,0,0,1,90.78,162a11.23,11.23,0,0,1,3.89-2.55,13.19,13.19,0,0,1,4.95-.91,13,13,0,0,1,4.92.91A11.42,11.42,0,0,1,111,165.9a13.78,13.78,0,0,1,0,9.84,11.42,11.42,0,0,1-6.43,6.43,13,13,0,0,1-4.92.91,13.19,13.19,0,0,1-4.95-.91,11.22,11.22,0,0,1-3.89-2.55,11.73,11.73,0,0,1-2.52-3.88A13,13,0,0,1,87.35,170.82Zm3,0a10.79,10.79,0,0,0,.63,3.71,8.66,8.66,0,0,0,1.84,3,8.9,8.9,0,0,0,2.93,2,10.09,10.09,0,0,0,7.67,0,8.92,8.92,0,0,0,2.93-2,8.7,8.7,0,0,0,1.84-3,11.22,11.22,0,0,0,0-7.42,8.7,8.7,0,0,0-1.84-3,8.9,8.9,0,0,0-2.93-2,10.09,10.09,0,0,0-7.67,0,8.89,8.89,0,0,0-2.93,2,8.66,8.66,0,0,0-1.84,3A10.8,10.8,0,0,0,90.38,170.82Z" transform="translate(0 5.27)"/><path class="d" d="M118.64,165.72q0-.65-0.05-1.59t-0.08-1.89q0-1-.08-1.79t0-1.29h3q0,1.31.08,2.52a7.74,7.74,0,0,0,.13,1.56,10.35,10.35,0,0,1,3-3.38,7.39,7.39,0,0,1,4.44-1.31,5,5,0,0,1,.88.08l0.88,0.18-0.35,3a3.67,3.67,0,0,0-1.16-.2,8.45,8.45,0,0,0-3.41.63,6.41,6.41,0,0,0-2.37,1.74,7.3,7.3,0,0,0-1.39,2.6,10.93,10.93,0,0,0-.45,3.2v12.72h-3V165.72Z" transform="translate(0 5.27)"/><path class="d" d="M136.15,149.93a2.24,2.24,0,1,1,.66,1.62A2.19,2.19,0,0,1,136.15,149.93Zm0.76,9.24h3v23.31h-3V159.16Z" transform="translate(0 5.27)"/></g></svg>