<svg id="Ebene_1" data-name="Ebene 1" xmlns="http://www.w3.org/2000/svg" viewBox="0 0 63.88329 23.17322"><defs><style>.cls-1{fill:none;}.cls-2{fill:#bba891;}.cls-3{fill:#1d1d1b;}</style></defs><title>sys_logo_landscape3</title><path class="cls-1" d="M3.75,12.10331v3.276a10.35153,10.35153,0,0,1,14.88861.13957v-3.3216A12.84543,12.84543,0,0,0,3.75,12.10331Z" transform="translate(-3.75 -3.67287)"/><path class="cls-1" d="M11.1283,14.08346A8.57626,8.57626,0,0,0,4.127,17.711a7.41949,7.41949,0,0,0,1.48487,2.43335,6.06338,6.06338,0,0,1,11.07361.09367,7.43109,7.43109,0,0,0,1.52816-2.40717A8.5776,8.5776,0,0,0,11.1283,14.08346Z" transform="translate(-3.75 -3.67287)"/><path class="cls-1" d="M3.75,7.13155V9.97244a14.6527,14.6527,0,0,1,14.88861.07818V7.19511A17.17931,17.17931,0,0,0,3.75,7.13155Z" transform="translate(-3.75 -3.67287)"/><path class="cls-1" d="M11.1283,18.39219A4.28186,4.28186,0,0,0,7.05448,21.373a7.57746,7.57746,0,0,0,1.30587.68629c.274.11107.64193.2685,1.01826.43271a1.75793,1.75793,0,0,1,3.50137.0299c.43471-.17485.85713-.34523,1.14812-.46322a7.57712,7.57712,0,0,0,1.19311-.61636A4.27956,4.27956,0,0,0,11.1283,18.39219Z" transform="translate(-3.75 -3.67287)"/><path class="cls-1" d="M11.1283,22.63144a.03313.03313,0,0,0-.03436.03481.03474.03474,0,0,0,.03436.035.03632.03632,0,0,0,.035-.035A.03452.03452,0,0,0,11.1283,22.63144Z" transform="translate(-3.75 -3.67287)"/><path class="cls-1" d="M3.75,5.16467a18.98387,18.98387,0,0,1,14.88861.05769" transform="translate(-3.75 -3.67287)"/><path class="cls-2" d="M11.1283,16.59876a6.07427,6.07427,0,0,0-5.51648,3.54557A7.60646,7.60646,0,0,0,7.05448,21.373a4.27267,4.27267,0,0,1,8.16673.06932A7.60566,7.60566,0,0,0,16.68543,20.238,6.07341,6.07341,0,0,0,11.1283,16.59876Z" transform="translate(-3.75 -3.67287)"/><path class="cls-2" d="M11.1283,20.9078A1.76077,1.76077,0,0,0,9.37861,22.492c.82832.3611,1.69777.75407,1.69777.75407s.92691-.37157,1.8036-.72417A1.76,1.76,0,0,0,11.1283,20.9078Z" transform="translate(-3.75 -3.67287)"/><path class="cls-2" d="M11.1283,12.28972A10.34327,10.34327,0,0,0,3.75,15.37931V16.226A7.22532,7.22532,0,0,0,4.127,17.711a8.5711,8.5711,0,0,1,14.08664.11985,7.22491,7.22491,0,0,0,.425-1.60487v-.70708A10.34251,10.34251,0,0,0,11.1283,12.28972Z" transform="translate(-3.75 -3.67287)"/><path class="cls-2" d="M3.75,9.97244v2.13087a12.84543,12.84543,0,0,1,14.88861.094V10.05062A14.6527,14.6527,0,0,0,3.75,9.97244Z" transform="translate(-3.75 -3.67287)"/><path class="cls-2" d="M3.75,5.16467V7.13155a17.17931,17.17931,0,0,1,14.88861.06356V5.22236A18.98387,18.98387,0,0,0,3.75,5.16467Z" transform="translate(-3.75 -3.67287)"/><path class="cls-3" d="M23.521,21.07171a2.082,2.082,0,0,0,.90328.91139,2.65952,2.65952,0,0,0,1.25789.31464,2.03531,2.03531,0,0,0,.613-.09675,1.87174,1.87174,0,0,0,.54844-.27436,1.49367,1.49367,0,0,0,.39514-.4273,1.07418,1.07418,0,0,0,.15326-.57276.92206.92206,0,0,0-.33087-.77409,2.45721,2.45721,0,0,0-.81433-.40327,9.81181,9.81181,0,0,0-1.06468-.25,4.54732,4.54732,0,0,1-1.06437-.32241,2.29,2.29,0,0,1-.81465-.60491A1.64032,1.64032,0,0,1,22.9726,17.475a1.91882,1.91882,0,0,1,.22568-.95167,2.08257,2.08257,0,0,1,.58869-.66922,2.56015,2.56015,0,0,1,.81464-.39515,3.3371,3.3371,0,0,1,.91955-.1289,3.47723,3.47723,0,0,1,1.58873.33867,2.349,2.349,0,0,1,1.04,1.06434l-.87083.51628a2.05018,2.05018,0,0,0-.68546-.78221,1.94314,1.94314,0,0,0-1.07245-.26624,1.96915,1.96915,0,0,0-.54061.08054,1.90632,1.90632,0,0,0-.50784.226,1.31139,1.31139,0,0,0-.37923.37083.8964.8964,0,0,0-.15294.51625.85793.85793,0,0,0,.33052.74193,2.529,2.529,0,0,0,.81436.37891,9.81376,9.81376,0,0,0,1.06465.23381,4.31828,4.31828,0,0,1,1.06469.3146,2.17961,2.17961,0,0,1,.81433.629,1.82761,1.82761,0,0,1,.33055,1.16955,2.18913,2.18913,0,0,1-.21785,1.00786,2.07928,2.07928,0,0,1-.59648.7179,2.66361,2.66361,0,0,1-.863.43542,3.51847,3.51847,0,0,1-1.01629.14514,4.143,4.143,0,0,1-1.766-.3708,2.6801,2.6801,0,0,1-1.23355-1.14519Z" transform="translate(-3.75 -3.67287)"/><path class="cls-3" d="M32.47258,25.28139a2.77644,2.77644,0,0,1-.75818,1.1452,1.90074,1.90074,0,0,1-1.29033.4195,2.97939,2.97939,0,0,1-.48381-.04027,4.36719,4.36719,0,0,1-.46757-.10487l.09678-.90331q.20927.06415.4273.12111a1.76831,1.76831,0,0,0,.44353.05619.929.929,0,0,0,.45978-.1127,1.21485,1.21485,0,0,0,.34675-.29028,1.99686,1.99686,0,0,0,.25-.39515,4.73038,4.73038,0,0,0,.18538-.44385l.67766-1.72576-3.03265-7.48359h1.08089l2.46769,6.27411,2.4031-6.27411h1.0325Z" transform="translate(-3.75 -3.67287)"/><path class="cls-3" d="M38.16613,21.07171a2.08036,2.08036,0,0,0,.90328.91139,2.6586,2.6586,0,0,0,1.2579.31464,2.03711,2.03711,0,0,0,.613-.09675,1.866,1.866,0,0,0,.54808-.27436,1.49328,1.49328,0,0,0,.39515-.4273,1.07161,1.07161,0,0,0,.15358-.57276.92209.92209,0,0,0-.33087-.77409,2.456,2.456,0,0,0-.81465-.40327,9.80606,9.80606,0,0,0-1.06437-.25,4.54213,4.54213,0,0,1-1.06434-.32241,2.28981,2.28981,0,0,1-.81468-.60491,1.64037,1.64037,0,0,1-.33083-1.09684,1.91879,1.91879,0,0,1,.226-.95167,2.07919,2.07919,0,0,1,.58867-.66922,2.557,2.557,0,0,1,.81465-.39515,3.33658,3.33658,0,0,1,.91923-.1289,3.47721,3.47721,0,0,1,1.58874.33867A2.34958,2.34958,0,0,1,42.795,16.73309l-.87084.51628a2.0501,2.0501,0,0,0-.68546-.78221,1.94426,1.94426,0,0,0-1.07277-.26624,1.96723,1.96723,0,0,0-.54029.08054,1.90391,1.90391,0,0,0-.50816.226,1.3103,1.3103,0,0,0-.37891.37083.89672.89672,0,0,0-.15326.51625.85866.85866,0,0,0,.33056.74193,2.53026,2.53026,0,0,0,.81464.37891,9.80649,9.80649,0,0,0,1.06437.23381,4.31424,4.31424,0,0,1,1.06465.3146,2.17735,2.17735,0,0,1,.81436.629,1.82589,1.82589,0,0,1,.33084,1.16955,2.189,2.189,0,0,1-.21785,1.00786,2.08017,2.08017,0,0,1-.5968.7179,2.66485,2.66485,0,0,1-.86271.43542,3.52,3.52,0,0,1-1.0163.14514,4.14212,4.14212,0,0,1-1.766-.3708,2.6792,2.6792,0,0,1-1.23383-1.14519Z" transform="translate(-3.75 -3.67287)"/><path class="cls-3" d="M48.97233,16.39445h-2.129v4.85484a1.04589,1.04589,0,0,0,.274.77409,1.02476,1.02476,0,0,0,.75817.27436A2.22985,2.22985,0,0,0,48.432,22.225a3.55416,3.55416,0,0,0,.54029-.18541l.08086.87084a5.75874,5.75874,0,0,1-.62926.17761,2.8837,2.8837,0,0,1-.62895.08052,2.31873,2.31873,0,0,1-.88705-.15326,1.56914,1.56914,0,0,1-.59679-.41139,1.60814,1.60814,0,0,1-.33055-.60459,2.58021,2.58021,0,0,1-.10487-.75005V16.39445H44.26263v-.87084h1.61309V13.37835h.96759v2.14526h2.129Z" transform="translate(-3.75 -3.67287)"/><path class="cls-3" d="M50.5851,19.24917a4.151,4.151,0,0,1,.2906-1.5725,3.75579,3.75579,0,0,1,.80624-1.242,3.59062,3.59062,0,0,1,1.242-.81436,4.2173,4.2173,0,0,1,1.58062-.29028,4.15558,4.15558,0,0,1,1.57253.29028,3.649,3.649,0,0,1,2.05659,2.05631,4.40527,4.40527,0,0,1,0,3.14532A3.65129,3.65129,0,0,1,56.077,22.8783a4.15558,4.15558,0,0,1-1.57253.29028,4.2173,4.2173,0,0,1-1.58062-.29028,3.58719,3.58719,0,0,1-1.242-.81465A3.74828,3.74828,0,0,1,50.8757,20.822,4.15039,4.15039,0,0,1,50.5851,19.24917Zm.96794,0a3.44935,3.44935,0,0,0,.20161,1.18547,2.76878,2.76878,0,0,0,.58868.96791,2.84552,2.84552,0,0,0,.93547.6533,3.22649,3.22649,0,0,0,2.45145,0,2.85026,2.85026,0,0,0,.93575-.6533,2.78232,2.78232,0,0,0,.58868-.96791,3.58542,3.58542,0,0,0,0-2.37094,2.78085,2.78085,0,0,0-.58868-.96759,2.84536,2.84536,0,0,0-.93575-.6533,3.22649,3.22649,0,0,0-2.45145,0,2.84064,2.84064,0,0,0-.93547.6533,2.76732,2.76732,0,0,0-.58868.96759A3.452,3.452,0,0,0,51.553,19.24917Z" transform="translate(-3.75 -3.67287)"/><path class="cls-3" d="M60.58509,17.62016q0-.20926-.01621-.50813-.01591-.29826-.024-.6046-.00844-.30621-.02436-.57275-.01591-.266-.01591-.41107h.96758q.01591.41951.02436.80621a2.47272,2.47272,0,0,0,.04027.5,3.30771,3.30771,0,0,1,.95135-1.08061,2.362,2.362,0,0,1,1.41959-.41918,1.61037,1.61037,0,0,1,.28216.024c.09113.01623.18538.035.28217.05651l-.1127.95167a1.17187,1.17187,0,0,0-.37111-.06463,2.69936,2.69936,0,0,0-1.08869.20165,2.04838,2.04838,0,0,0-.75817.55652,2.33237,2.33237,0,0,0-.44354.83056,3.49361,3.49361,0,0,0-.14514,1.0241v4.06455h-.96762Z" transform="translate(-3.75 -3.67287)"/><path class="cls-3" d="M66.1819,12.57179a.71583.71583,0,1,1,.20944.51628A.701.701,0,0,1,66.1819,12.57179Zm.24188,2.95182h.96762v7.45144h-.96762Z" transform="translate(-3.75 -3.67287)"/></svg>