<svg xmlns="http://www.w3.org/2000/svg" width="28.16" height="38.6" viewBox="0 0 28.16 38.6"><defs><style>.a{fill:none;}.b{fill:#bba992;}</style></defs><title>systori_logo_nav</title><path class="a" d="M10.84,22.94v6.21A19.57,19.57,0,0,1,39,29.42V23.12A24.4,24.4,0,0,0,10.84,22.94Z" transform="translate(-10.84 -5.43)"/><path class="a" d="M24.81,26.7a16.25,16.25,0,0,0-13.25,6.86,13.71,13.71,0,0,0,2.8,4.59,11.46,11.46,0,0,1,20.94.18,13.82,13.82,0,0,0,2.89-4.56A16.23,16.23,0,0,0,24.81,26.7Z" transform="translate(-10.84 -5.43)"/><path class="a" d="M10.84,13.54v5.37A27.78,27.78,0,0,1,39,19.06v-5.4a32.36,32.36,0,0,0-14.2-3.28A33.15,33.15,0,0,0,10.84,13.54Z" transform="translate(-10.84 -5.43)"/><path class="a" d="M24.81,34.85a8.11,8.11,0,0,0-7.7,5.64,15.1,15.1,0,0,0,2.48,1.31l1.94,0.81a3.33,3.33,0,0,1,6.62.06C29,42.33,29.76,42,30.33,41.8a16.25,16.25,0,0,0,2.27-1.16A8.18,8.18,0,0,0,24.81,34.85Z" transform="translate(-10.84 -5.43)"/><path class="a" d="M24.81,42.87a0.06,0.06,0,1,0,.06.06A0.06,0.06,0,0,0,24.81,42.87Z" transform="translate(-10.84 -5.43)"/><path class="a" d="M24.81,7A35.77,35.77,0,0,1,39,9.93V5.43H10.84V9.84A35.7,35.7,0,0,1,24.81,7Z" transform="translate(-10.84 -5.43)"/><path class="b" d="M24.81,31.44a11.49,11.49,0,0,0-10.44,6.71,14.37,14.37,0,0,0,2.71,2.33,8.07,8.07,0,0,1,15.42.12,15.62,15.62,0,0,0,2.77-2.27A11.39,11.39,0,0,0,24.81,31.44Z" transform="translate(-10.84 -5.43)"/><path class="b" d="M24.81,39.62a3.33,3.33,0,0,0-3.31,3C23.08,43.29,24.72,44,24.72,44l3.4-1.37A3.3,3.3,0,0,0,24.81,39.62Z" transform="translate(-10.84 -5.43)"/><path class="b" d="M24.81,23.3a19.59,19.59,0,0,0-14,5.85v1.61a14.31,14.31,0,0,0,.72,2.8,16.2,16.2,0,0,1,26.64.24,12.69,12.69,0,0,0,.81-3V29.42A19.57,19.57,0,0,0,24.81,23.3Z" transform="translate(-10.84 -5.43)"/><path class="b" d="M10.84,18.91v4A24.26,24.26,0,0,1,39,23.12V19.06A27.78,27.78,0,0,0,10.84,18.91Z" transform="translate(-10.84 -5.43)"/><path class="b" d="M10.84,9.84v3.73A32.38,32.38,0,0,1,39,13.69V9.93A35.88,35.88,0,0,0,10.84,9.84Z" transform="translate(-10.84 -5.43)"/></svg>