<?xml version="1.0" standalone="no"?>
<!DOCTYPE svg PUBLIC "-//W3C//DTD SVG 20010904//EN"
 "http://www.w3.org/TR/2001/REC-SVG-20010904/DTD/svg10.dtd">
<svg version="1.0" xmlns="http://www.w3.org/2000/svg"
 width="500.000000pt" height="500.000000pt" viewBox="0 0 500.000000 500.000000"
 preserveAspectRatio="xMidYMid meet">
<metadata>
Created by potrace 1.11, written by Peter Selinger 2001-2013
</metadata>
<g transform="translate(0.000000,500.000000) scale(0.100000,-0.100000)"
fill="#000000" stroke="none">
<path d="M2209 4905 c-2 -2 -42 -6 -89 -10 -106 -8 -154 -12 -205 -20 -22 -3
-58 -8 -80 -10 -48 -6 -250 -42 -285 -50 -14 -3 -38 -8 -55 -11 -16 -3 -57
-12 -90 -21 -33 -8 -67 -16 -75 -18 -88 -17 -421 -126 -560 -183 l-95 -38 -3
-242 c-1 -133 -1 -242 1 -242 1 0 63 26 137 58 238 103 494 188 730 242 52 12
104 23 115 25 17 2 81 14 160 29 11 2 43 7 70 10 28 4 67 9 88 12 239 33 770
39 947 10 14 -3 52 -7 85 -11 33 -3 103 -13 155 -22 52 -8 109 -17 125 -20 17
-2 46 -8 65 -13 19 -5 50 -12 69 -15 19 -3 37 -8 41 -10 4 -2 20 -7 36 -9 16
-3 76 -19 134 -36 58 -17 112 -32 121 -34 74 -18 363 -130 499 -194 l85 -39 3
240 c1 132 1 242 -2 244 -2 2 -57 26 -122 52 -186 76 -483 170 -649 206 -39 9
-79 18 -90 20 -98 22 -257 50 -340 60 -27 4 -61 8 -75 11 -14 2 -54 7 -90 10
-36 4 -81 8 -100 11 -45 5 -657 13 -661 8z"/>
<path d="M2257 3844 c-1 -1 -38 -5 -82 -9 -44 -4 -88 -9 -98 -11 -10 -2 -46
-6 -80 -9 -34 -4 -64 -8 -67 -10 -3 -2 -30 -6 -60 -10 -30 -4 -58 -9 -61 -11
-4 -2 -24 -6 -45 -10 -67 -10 -304 -74 -414 -110 -212 -71 -605 -250 -662
-301 -16 -15 -18 -40 -17 -269 1 -140 4 -254 7 -254 3 0 46 26 96 59 286 184
580 314 909 401 126 33 132 34 277 59 341 60 752 60 1065 1 28 -5 61 -11 75
-14 51 -8 247 -57 310 -77 87 -28 228 -78 265 -94 235 -101 384 -180 554 -293
47 -31 92 -61 99 -65 9 -6 12 47 12 257 l0 265 -87 48 c-171 95 -359 182 -528
243 -33 12 -75 28 -93 36 -18 8 -42 14 -53 14 -11 0 -29 5 -39 10 -35 19 -256
72 -435 106 -22 4 -44 8 -50 9 -5 1 -37 6 -70 10 -33 4 -75 9 -92 11 -110 13
-173 16 -391 18 -133 1 -243 1 -245 0z"/>
<path d="M2367 2784 c-1 -1 -44 -5 -96 -9 -51 -4 -103 -8 -115 -11 -11 -2 -39
-6 -61 -9 -22 -3 -47 -7 -55 -10 -8 -2 -30 -7 -47 -10 -425 -72 -929 -333
-1261 -653 l-62 -61 4 -133 c3 -112 9 -155 39 -270 19 -75 39 -143 44 -152 6
-12 21 2 68 61 239 305 588 561 930 683 118 42 141 49 220 69 345 87 733 83
1077 -13 171 -48 426 -158 531 -230 21 -14 40 -26 43 -26 4 0 105 -71 145
-102 129 -100 301 -272 388 -388 35 -47 67 -89 71 -93 9 -11 66 162 90 274 12
56 20 133 20 190 l0 95 -54 55 c-182 185 -413 352 -659 475 -102 52 -277 125
-277 117 0 -3 -6 -1 -12 4 -20 15 -251 82 -338 97 -19 3 -46 8 -60 11 -13 3
-40 7 -60 10 -20 3 -46 7 -58 10 -59 11 -446 27 -455 19z"/>
<path d="M2405 1722 c-2 -2 -23 -5 -47 -7 -48 -3 -128 -15 -198 -30 -14 -3
-34 -7 -45 -9 -11 -2 -60 -18 -110 -35 -260 -91 -489 -250 -665 -461 -64 -78
-148 -204 -185 -280 l-26 -55 97 -92 c82 -78 240 -203 256 -203 3 0 17 31 32
69 89 228 283 440 497 543 188 91 274 111 474 112 229 0 388 -44 566 -159 88
-57 101 -68 187 -153 89 -89 174 -216 223 -337 21 -49 40 -90 43 -90 17 0 194
136 270 207 l88 83 -40 76 c-161 308 -402 540 -712 686 -65 31 -229 87 -285
98 -16 3 -41 8 -55 11 -88 18 -354 37 -365 26z"/>
<path d="M2381 645 c-109 -31 -211 -108 -265 -199 -28 -48 -60 -151 -53 -170
3 -7 45 -30 94 -51 48 -21 117 -51 153 -67 36 -17 88 -40 116 -53 l51 -23 174
70 c96 38 183 74 194 79 11 5 33 13 48 19 27 10 28 12 22 53 -15 88 -67 181
-144 253 -14 14 -58 41 -98 60 -88 43 -203 54 -292 29z"/>
</g>
</svg>
